<mxfile host="Electron" agent="Mozilla/5.0 (Windows NT 10.0; Win64; x64) AppleWebKit/537.36 (KHTML, like Gecko) draw.io/27.0.2 Chrome/134.0.6998.205 Electron/35.3.0 Safari/537.36" version="27.0.2" pages="4">
  <diagram name="использование" id="gU5_sWGHKWtG-pdAfn0e">
    <mxGraphModel dx="826" dy="-54" grid="1" gridSize="10" guides="1" tooltips="1" connect="1" arrows="1" fold="1" page="0" pageScale="1" pageWidth="827" pageHeight="1169" math="0" shadow="0">
      <root>
        <mxCell id="0" />
        <mxCell id="1" parent="0" />
        <mxCell id="9z4CYQN5zjKrBTdGZNif-77" value="" style="rounded=0;whiteSpace=wrap;html=1;fillColor=none;" parent="1" vertex="1">
          <mxGeometry x="830" y="880" width="870" height="730" as="geometry" />
        </mxCell>
        <mxCell id="9z4CYQN5zjKrBTdGZNif-24" style="rounded=0;orthogonalLoop=1;jettySize=auto;html=1;exitX=1;exitY=0.3333333333333333;exitDx=0;exitDy=0;exitPerimeter=0;entryX=0.118;entryY=0.235;entryDx=0;entryDy=0;entryPerimeter=0;" parent="1" source="9z4CYQN5zjKrBTdGZNif-29" target="9z4CYQN5zjKrBTdGZNif-30" edge="1">
          <mxGeometry relative="1" as="geometry" />
        </mxCell>
        <mxCell id="9z4CYQN5zjKrBTdGZNif-25" style="edgeStyle=none;rounded=0;orthogonalLoop=1;jettySize=auto;html=1;exitX=1;exitY=0.3333333333333333;exitDx=0;exitDy=0;exitPerimeter=0;entryX=0.032;entryY=0.367;entryDx=0;entryDy=0;entryPerimeter=0;" parent="1" source="9z4CYQN5zjKrBTdGZNif-29" target="9z4CYQN5zjKrBTdGZNif-31" edge="1">
          <mxGeometry relative="1" as="geometry" />
        </mxCell>
        <mxCell id="9z4CYQN5zjKrBTdGZNif-26" style="edgeStyle=none;rounded=0;orthogonalLoop=1;jettySize=auto;html=1;exitX=1;exitY=0.3333333333333333;exitDx=0;exitDy=0;exitPerimeter=0;entryX=0;entryY=0.5;entryDx=0;entryDy=0;" parent="1" source="9z4CYQN5zjKrBTdGZNif-29" target="9z4CYQN5zjKrBTdGZNif-35" edge="1">
          <mxGeometry relative="1" as="geometry" />
        </mxCell>
        <mxCell id="9z4CYQN5zjKrBTdGZNif-27" style="edgeStyle=none;rounded=0;orthogonalLoop=1;jettySize=auto;html=1;exitX=1;exitY=0.3333333333333333;exitDx=0;exitDy=0;exitPerimeter=0;entryX=0;entryY=0.5;entryDx=0;entryDy=0;" parent="1" source="9z4CYQN5zjKrBTdGZNif-29" target="9z4CYQN5zjKrBTdGZNif-34" edge="1">
          <mxGeometry relative="1" as="geometry" />
        </mxCell>
        <mxCell id="9z4CYQN5zjKrBTdGZNif-28" style="edgeStyle=none;rounded=0;orthogonalLoop=1;jettySize=auto;html=1;exitX=1;exitY=0.3333333333333333;exitDx=0;exitDy=0;exitPerimeter=0;" parent="1" source="9z4CYQN5zjKrBTdGZNif-29" target="9z4CYQN5zjKrBTdGZNif-33" edge="1">
          <mxGeometry relative="1" as="geometry" />
        </mxCell>
        <mxCell id="9z4CYQN5zjKrBTdGZNif-29" value="Клиент" style="shape=umlActor;verticalLabelPosition=bottom;verticalAlign=top;html=1;outlineConnect=0;" parent="1" vertex="1">
          <mxGeometry x="740" y="1250" width="40" height="80" as="geometry" />
        </mxCell>
        <mxCell id="9z4CYQN5zjKrBTdGZNif-30" value="&lt;span style=&quot;font-size:11.0pt;line-height:&lt;br/&gt;107%;font-family:&amp;quot;Calibri&amp;quot;,sans-serif;mso-ascii-theme-font:minor-latin;&lt;br/&gt;mso-fareast-font-family:Calibri;mso-fareast-theme-font:minor-latin;mso-hansi-theme-font:&lt;br/&gt;minor-latin;mso-bidi-font-family:&amp;quot;Times New Roman&amp;quot;;mso-bidi-theme-font:minor-bidi;&lt;br/&gt;mso-font-kerning:0pt;mso-ligatures:none;mso-ansi-language:RU;mso-fareast-language:&lt;br/&gt;EN-US;mso-bidi-language:AR-SA&quot; lang=&quot;RU&quot;&gt;регистрироваться&lt;/span&gt;" style="ellipse;whiteSpace=wrap;html=1;" parent="1" vertex="1">
          <mxGeometry x="1040" y="1520" width="160" height="80" as="geometry" />
        </mxCell>
        <mxCell id="9z4CYQN5zjKrBTdGZNif-31" value="&lt;span style=&quot;font-size:11.0pt;line-height:&lt;br/&gt;107%;font-family:&amp;quot;Calibri&amp;quot;,sans-serif;mso-ascii-theme-font:minor-latin;&lt;br/&gt;mso-fareast-font-family:Calibri;mso-fareast-theme-font:minor-latin;mso-hansi-theme-font:&lt;br/&gt;minor-latin;mso-bidi-font-family:&amp;quot;Times New Roman&amp;quot;;mso-bidi-theme-font:minor-bidi;&lt;br/&gt;mso-font-kerning:0pt;mso-ligatures:none;mso-ansi-language:RU;mso-fareast-language:&lt;br/&gt;EN-US;mso-bidi-language:AR-SA&quot; lang=&quot;RU&quot;&gt;авторизоваться&lt;/span&gt;" style="ellipse;whiteSpace=wrap;html=1;" parent="1" vertex="1">
          <mxGeometry x="1190" y="1280" width="160" height="80" as="geometry" />
        </mxCell>
        <mxCell id="9z4CYQN5zjKrBTdGZNif-32" value="просматривать абонементы" style="ellipse;whiteSpace=wrap;html=1;" parent="1" vertex="1">
          <mxGeometry x="850" y="910" width="160" height="80" as="geometry" />
        </mxCell>
        <mxCell id="9z4CYQN5zjKrBTdGZNif-33" value="просматривать план тренировок" style="ellipse;whiteSpace=wrap;html=1;" parent="1" vertex="1">
          <mxGeometry x="1080" y="1040" width="160" height="80" as="geometry" />
        </mxCell>
        <mxCell id="9z4CYQN5zjKrBTdGZNif-34" value="выполнять план тренировок" style="ellipse;whiteSpace=wrap;html=1;" parent="1" vertex="1">
          <mxGeometry x="1020" y="1180" width="160" height="80" as="geometry" />
        </mxCell>
        <mxCell id="9z4CYQN5zjKrBTdGZNif-35" value="записывать на тренировки" style="ellipse;whiteSpace=wrap;html=1;" parent="1" vertex="1">
          <mxGeometry x="1020" y="1310" width="160" height="80" as="geometry" />
        </mxCell>
        <mxCell id="9z4CYQN5zjKrBTdGZNif-36" value="" style="edgeStyle=none;rounded=0;orthogonalLoop=1;jettySize=auto;html=1;exitX=1;exitY=0.3333333333333333;exitDx=0;exitDy=0;exitPerimeter=0;entryX=0.35;entryY=1.038;entryDx=0;entryDy=0;entryPerimeter=0;" parent="1" source="9z4CYQN5zjKrBTdGZNif-29" target="9z4CYQN5zjKrBTdGZNif-32" edge="1">
          <mxGeometry relative="1" as="geometry">
            <mxPoint x="860" y="1147" as="sourcePoint" />
            <mxPoint x="1391" y="1060" as="targetPoint" />
          </mxGeometry>
        </mxCell>
        <mxCell id="9z4CYQN5zjKrBTdGZNif-40" style="edgeStyle=none;rounded=0;orthogonalLoop=1;jettySize=auto;html=1;exitX=1;exitY=0.3333333333333333;exitDx=0;exitDy=0;exitPerimeter=0;entryX=0;entryY=0.5;entryDx=0;entryDy=0;" parent="1" source="9z4CYQN5zjKrBTdGZNif-29" target="9z4CYQN5zjKrBTdGZNif-44" edge="1">
          <mxGeometry relative="1" as="geometry">
            <mxPoint x="860" y="1147" as="sourcePoint" />
          </mxGeometry>
        </mxCell>
        <mxCell id="9z4CYQN5zjKrBTdGZNif-44" value="&lt;span style=&quot;font-size:11.0pt;line-height:&lt;br/&gt;107%;font-family:&amp;quot;Calibri&amp;quot;,sans-serif;mso-ascii-theme-font:minor-latin;&lt;br/&gt;mso-fareast-font-family:Calibri;mso-fareast-theme-font:minor-latin;mso-hansi-theme-font:&lt;br/&gt;minor-latin;mso-bidi-font-family:&amp;quot;Times New Roman&amp;quot;;mso-bidi-theme-font:minor-bidi;&lt;br/&gt;mso-font-kerning:0pt;mso-ligatures:none;mso-ansi-language:RU;mso-fareast-language:&lt;br/&gt;EN-US;mso-bidi-language:AR-SA&quot; lang=&quot;RU&quot;&gt;оставлять отзывы&lt;/span&gt;" style="ellipse;whiteSpace=wrap;html=1;" parent="1" vertex="1">
          <mxGeometry x="1030" y="1410" width="160" height="80" as="geometry" />
        </mxCell>
        <mxCell id="9z4CYQN5zjKrBTdGZNif-47" value="фильтровать абонементы" style="ellipse;whiteSpace=wrap;html=1;" parent="1" vertex="1">
          <mxGeometry x="1200" y="920" width="160" height="80" as="geometry" />
        </mxCell>
        <mxCell id="9z4CYQN5zjKrBTdGZNif-48" value="" style="edgeStyle=none;rounded=0;orthogonalLoop=1;jettySize=auto;html=1;entryX=0;entryY=0.5;entryDx=0;entryDy=0;exitX=1;exitY=0.3333333333333333;exitDx=0;exitDy=0;exitPerimeter=0;" parent="1" source="9z4CYQN5zjKrBTdGZNif-29" target="9z4CYQN5zjKrBTdGZNif-47" edge="1">
          <mxGeometry relative="1" as="geometry">
            <mxPoint x="790" y="1110" as="sourcePoint" />
            <mxPoint x="1391" y="1060" as="targetPoint" />
          </mxGeometry>
        </mxCell>
        <mxCell id="9z4CYQN5zjKrBTdGZNif-52" value="" style="edgeStyle=none;rounded=0;orthogonalLoop=1;jettySize=auto;html=1;entryX=0.103;entryY=0.781;entryDx=0;entryDy=0;exitX=1;exitY=0.3333333333333333;exitDx=0;exitDy=0;exitPerimeter=0;entryPerimeter=0;" parent="1" source="9z4CYQN5zjKrBTdGZNif-29" target="9z4CYQN5zjKrBTdGZNif-53" edge="1">
          <mxGeometry relative="1" as="geometry">
            <mxPoint x="790" y="1110" as="sourcePoint" />
            <mxPoint x="1180" y="1370" as="targetPoint" />
          </mxGeometry>
        </mxCell>
        <mxCell id="9z4CYQN5zjKrBTdGZNif-53" value="редактировать данные с личном кабинете" style="ellipse;whiteSpace=wrap;html=1;" parent="1" vertex="1">
          <mxGeometry x="1030" y="890" width="160" height="80" as="geometry" />
        </mxCell>
        <mxCell id="-gEA4kKyqDbF77y-FPu--26" style="rounded=0;orthogonalLoop=1;jettySize=auto;html=1;exitX=0;exitY=0.3333333333333333;exitDx=0;exitDy=0;exitPerimeter=0;entryX=1;entryY=0.5;entryDx=0;entryDy=0;" parent="1" source="9z4CYQN5zjKrBTdGZNif-59" target="-gEA4kKyqDbF77y-FPu--25" edge="1">
          <mxGeometry relative="1" as="geometry" />
        </mxCell>
        <mxCell id="9z4CYQN5zjKrBTdGZNif-59" value="Администратор" style="shape=umlActor;verticalLabelPosition=bottom;verticalAlign=top;html=1;outlineConnect=0;" parent="1" vertex="1">
          <mxGeometry x="1820" y="1400" width="40" height="80" as="geometry" />
        </mxCell>
        <mxCell id="9z4CYQN5zjKrBTdGZNif-62" value="&lt;font face=&quot;Calibri, sans-serif&quot;&gt;&lt;span style=&quot;font-size: 14.6667px;&quot;&gt;блокировать пользователей&lt;/span&gt;&lt;/font&gt;" style="ellipse;whiteSpace=wrap;html=1;" parent="1" vertex="1">
          <mxGeometry x="1230" y="1520" width="160" height="80" as="geometry" />
        </mxCell>
        <mxCell id="9z4CYQN5zjKrBTdGZNif-75" style="rounded=0;orthogonalLoop=1;jettySize=auto;html=1;exitX=0;exitY=0.3333333333333333;exitDx=0;exitDy=0;exitPerimeter=0;entryX=1;entryY=0.5;entryDx=0;entryDy=0;" parent="1" source="9z4CYQN5zjKrBTdGZNif-59" target="9z4CYQN5zjKrBTdGZNif-76" edge="1">
          <mxGeometry relative="1" as="geometry">
            <mxPoint x="530" y="1567" as="sourcePoint" />
          </mxGeometry>
        </mxCell>
        <mxCell id="9z4CYQN5zjKrBTdGZNif-76" value="&lt;font face=&quot;Calibri, sans-serif&quot;&gt;&lt;span style=&quot;font-size: 14.6667px;&quot;&gt;удалять отзывы&lt;/span&gt;&lt;/font&gt;" style="ellipse;whiteSpace=wrap;html=1;" parent="1" vertex="1">
          <mxGeometry x="1480" y="1520" width="160" height="80" as="geometry" />
        </mxCell>
        <mxCell id="9z4CYQN5zjKrBTdGZNif-93" value="Тренер" style="shape=umlActor;verticalLabelPosition=bottom;verticalAlign=top;html=1;outlineConnect=0;" parent="1" vertex="1">
          <mxGeometry x="1820" y="1120" width="40" height="80" as="geometry" />
        </mxCell>
        <mxCell id="9z4CYQN5zjKrBTdGZNif-94" value="&lt;span style=&quot;font-size:11.0pt;line-height:&lt;br/&gt;107%;font-family:&amp;quot;Calibri&amp;quot;,sans-serif;mso-ascii-theme-font:minor-latin;&lt;br/&gt;mso-fareast-font-family:Calibri;mso-fareast-theme-font:minor-latin;mso-hansi-theme-font:&lt;br/&gt;minor-latin;mso-bidi-font-family:&amp;quot;Times New Roman&amp;quot;;mso-bidi-theme-font:minor-bidi;&lt;br/&gt;background:yellow;mso-highlight:yellow;mso-font-kerning:0pt;mso-ligatures:none;&lt;br/&gt;mso-ansi-language:RU;mso-fareast-language:EN-US;mso-bidi-language:AR-SA&quot; lang=&quot;RU&quot;&gt;Редактировать абонементы&amp;nbsp;&lt;/span&gt;" style="ellipse;whiteSpace=wrap;html=1;" parent="1" vertex="1">
          <mxGeometry x="1280" y="1040" width="160" height="80" as="geometry" />
        </mxCell>
        <mxCell id="9z4CYQN5zjKrBTdGZNif-95" value="&lt;font face=&quot;Calibri, sans-serif&quot;&gt;&lt;span style=&quot;font-size: 14.6667px;&quot;&gt;добавлять абонементы&lt;/span&gt;&lt;/font&gt;" style="ellipse;whiteSpace=wrap;html=1;" parent="1" vertex="1">
          <mxGeometry x="1520" y="910" width="160" height="80" as="geometry" />
        </mxCell>
        <mxCell id="9z4CYQN5zjKrBTdGZNif-96" value="&lt;font face=&quot;Calibri, sans-serif&quot;&gt;&lt;span style=&quot;font-size: 14.6667px;&quot;&gt;добавлять план тренировок питания&lt;/span&gt;&lt;/font&gt;" style="ellipse;whiteSpace=wrap;html=1;" parent="1" vertex="1">
          <mxGeometry x="1360" y="1160" width="160" height="80" as="geometry" />
        </mxCell>
        <mxCell id="9z4CYQN5zjKrBTdGZNif-98" value="&lt;font face=&quot;Calibri, sans-serif&quot;&gt;&lt;span style=&quot;font-size: 14.6667px;&quot;&gt;Удалить абонементы&amp;nbsp;&lt;/span&gt;&lt;/font&gt;" style="ellipse;whiteSpace=wrap;html=1;" parent="1" vertex="1">
          <mxGeometry x="1360" y="930" width="160" height="80" as="geometry" />
        </mxCell>
        <mxCell id="9z4CYQN5zjKrBTdGZNif-100" style="rounded=0;orthogonalLoop=1;jettySize=auto;html=1;exitX=0;exitY=0.3333333333333333;exitDx=0;exitDy=0;exitPerimeter=0;entryX=1;entryY=0.5;entryDx=0;entryDy=0;" parent="1" source="9z4CYQN5zjKrBTdGZNif-93" target="9z4CYQN5zjKrBTdGZNif-96" edge="1">
          <mxGeometry relative="1" as="geometry">
            <mxPoint x="560" y="1337" as="sourcePoint" />
          </mxGeometry>
        </mxCell>
        <mxCell id="9z4CYQN5zjKrBTdGZNif-101" value="&lt;font face=&quot;Calibri, sans-serif&quot;&gt;&lt;span style=&quot;font-size: 14.6667px;&quot;&gt;добавлять клиентов&lt;/span&gt;&lt;/font&gt;" style="ellipse;whiteSpace=wrap;html=1;" parent="1" vertex="1">
          <mxGeometry x="1520" y="1290" width="160" height="80" as="geometry" />
        </mxCell>
        <mxCell id="9z4CYQN5zjKrBTdGZNif-102" style="rounded=0;orthogonalLoop=1;jettySize=auto;html=1;entryX=0.963;entryY=0.337;entryDx=0;entryDy=0;entryPerimeter=0;exitX=0;exitY=0.3333333333333333;exitDx=0;exitDy=0;exitPerimeter=0;" parent="1" source="9z4CYQN5zjKrBTdGZNif-93" target="9z4CYQN5zjKrBTdGZNif-31" edge="1">
          <mxGeometry relative="1" as="geometry">
            <mxPoint x="1560" y="1290" as="sourcePoint" />
            <mxPoint x="1450" y="1323" as="targetPoint" />
          </mxGeometry>
        </mxCell>
        <mxCell id="-gEA4kKyqDbF77y-FPu--6" value="&lt;font face=&quot;Calibri, sans-serif&quot;&gt;&lt;span style=&quot;font-size: 14.6667px;&quot;&gt;управление&amp;nbsp;&lt;/span&gt;&lt;/font&gt;&lt;div&gt;&lt;font face=&quot;Calibri, sans-serif&quot;&gt;&lt;span style=&quot;font-size: 14.6667px;&quot;&gt;абонементами&lt;/span&gt;&lt;/font&gt;&lt;/div&gt;" style="ellipse;whiteSpace=wrap;html=1;" parent="1" vertex="1">
          <mxGeometry x="1520" y="1070" width="160" height="80" as="geometry" />
        </mxCell>
        <mxCell id="-gEA4kKyqDbF77y-FPu--19" value="&amp;lt;&amp;lt;include&amp;gt;&amp;gt;" style="html=1;verticalAlign=bottom;labelBackgroundColor=none;endArrow=open;endFill=0;dashed=1;rounded=0;exitX=0.626;exitY=0.014;exitDx=0;exitDy=0;entryX=0.777;entryY=0.91;entryDx=0;entryDy=0;entryPerimeter=0;exitPerimeter=0;" parent="1" source="-gEA4kKyqDbF77y-FPu--6" target="9z4CYQN5zjKrBTdGZNif-95" edge="1">
          <mxGeometry width="160" relative="1" as="geometry">
            <mxPoint x="1430" y="1030" as="sourcePoint" />
            <mxPoint x="1590" y="1030" as="targetPoint" />
          </mxGeometry>
        </mxCell>
        <mxCell id="-gEA4kKyqDbF77y-FPu--20" value="&amp;lt;&amp;lt;include&amp;gt;&amp;gt;" style="html=1;verticalAlign=bottom;labelBackgroundColor=none;endArrow=open;endFill=0;dashed=1;rounded=0;exitX=0.302;exitY=0.067;exitDx=0;exitDy=0;entryX=1;entryY=0.633;entryDx=0;entryDy=0;entryPerimeter=0;exitPerimeter=0;" parent="1" source="-gEA4kKyqDbF77y-FPu--6" target="9z4CYQN5zjKrBTdGZNif-98" edge="1">
          <mxGeometry width="160" relative="1" as="geometry">
            <mxPoint x="1529" y="1099" as="sourcePoint" />
            <mxPoint x="1430" y="1020" as="targetPoint" />
          </mxGeometry>
        </mxCell>
        <mxCell id="-gEA4kKyqDbF77y-FPu--21" value="&amp;lt;&amp;lt;include&amp;gt;&amp;gt;" style="html=1;verticalAlign=bottom;labelBackgroundColor=none;endArrow=open;endFill=0;dashed=1;rounded=0;exitX=0.005;exitY=0.443;exitDx=0;exitDy=0;entryX=1;entryY=0.5;entryDx=0;entryDy=0;exitPerimeter=0;" parent="1" source="-gEA4kKyqDbF77y-FPu--6" target="9z4CYQN5zjKrBTdGZNif-94" edge="1">
          <mxGeometry width="160" relative="1" as="geometry">
            <mxPoint x="1532" y="1113" as="sourcePoint" />
            <mxPoint x="1390" y="1061" as="targetPoint" />
          </mxGeometry>
        </mxCell>
        <mxCell id="-gEA4kKyqDbF77y-FPu--22" style="rounded=0;orthogonalLoop=1;jettySize=auto;html=1;exitX=0;exitY=0.3333333333333333;exitDx=0;exitDy=0;exitPerimeter=0;entryX=0.944;entryY=0.725;entryDx=0;entryDy=0;entryPerimeter=0;" parent="1" source="9z4CYQN5zjKrBTdGZNif-93" target="-gEA4kKyqDbF77y-FPu--6" edge="1">
          <mxGeometry relative="1" as="geometry" />
        </mxCell>
        <mxCell id="-gEA4kKyqDbF77y-FPu--23" style="rounded=0;orthogonalLoop=1;jettySize=auto;html=1;exitX=0;exitY=0.3333333333333333;exitDx=0;exitDy=0;exitPerimeter=0;entryX=0.896;entryY=0.221;entryDx=0;entryDy=0;entryPerimeter=0;" parent="1" source="9z4CYQN5zjKrBTdGZNif-93" target="9z4CYQN5zjKrBTdGZNif-101" edge="1">
          <mxGeometry relative="1" as="geometry" />
        </mxCell>
        <mxCell id="-gEA4kKyqDbF77y-FPu--24" style="rounded=0;orthogonalLoop=1;jettySize=auto;html=1;exitX=0;exitY=0.3333333333333333;exitDx=0;exitDy=0;exitPerimeter=0;entryX=0.937;entryY=0.738;entryDx=0;entryDy=0;entryPerimeter=0;" parent="1" source="9z4CYQN5zjKrBTdGZNif-59" target="9z4CYQN5zjKrBTdGZNif-31" edge="1">
          <mxGeometry relative="1" as="geometry" />
        </mxCell>
        <mxCell id="-gEA4kKyqDbF77y-FPu--25" value="&lt;font face=&quot;Calibri, sans-serif&quot;&gt;&lt;span style=&quot;font-size: 14.6667px;&quot;&gt;управленние пользователями&lt;/span&gt;&lt;/font&gt;" style="ellipse;whiteSpace=wrap;html=1;" parent="1" vertex="1">
          <mxGeometry x="1480" y="1420" width="160" height="80" as="geometry" />
        </mxCell>
        <mxCell id="-gEA4kKyqDbF77y-FPu--28" value="&lt;font face=&quot;Calibri, sans-serif&quot;&gt;&lt;span style=&quot;font-size: 14.6667px;&quot;&gt;изменять роли пользователей&lt;/span&gt;&lt;/font&gt;" style="ellipse;whiteSpace=wrap;html=1;" parent="1" vertex="1">
          <mxGeometry x="1230" y="1420" width="160" height="80" as="geometry" />
        </mxCell>
        <mxCell id="-gEA4kKyqDbF77y-FPu--30" value="&amp;lt;&amp;lt;include&amp;gt;&amp;gt;" style="html=1;verticalAlign=bottom;labelBackgroundColor=none;endArrow=open;endFill=0;dashed=1;rounded=0;exitX=0;exitY=0.5;exitDx=0;exitDy=0;entryX=1;entryY=0.5;entryDx=0;entryDy=0;" parent="1" source="-gEA4kKyqDbF77y-FPu--25" target="-gEA4kKyqDbF77y-FPu--28" edge="1">
          <mxGeometry width="160" relative="1" as="geometry">
            <mxPoint x="1450" y="1420" as="sourcePoint" />
            <mxPoint x="1610" y="1420" as="targetPoint" />
          </mxGeometry>
        </mxCell>
        <mxCell id="-gEA4kKyqDbF77y-FPu--31" value="&amp;lt;&amp;lt;include&amp;gt;&amp;gt;" style="html=1;verticalAlign=bottom;labelBackgroundColor=none;endArrow=open;endFill=0;dashed=1;rounded=0;entryX=0.998;entryY=0.41;entryDx=0;entryDy=0;entryPerimeter=0;exitX=0.049;exitY=0.722;exitDx=0;exitDy=0;exitPerimeter=0;" parent="1" source="-gEA4kKyqDbF77y-FPu--25" target="9z4CYQN5zjKrBTdGZNif-62" edge="1">
          <mxGeometry width="160" relative="1" as="geometry">
            <mxPoint x="1450" y="1420" as="sourcePoint" />
            <mxPoint x="1610" y="1420" as="targetPoint" />
          </mxGeometry>
        </mxCell>
        <mxCell id="-gEA4kKyqDbF77y-FPu--33" value="экспортировать план в PDF" style="ellipse;whiteSpace=wrap;html=1;" parent="1" vertex="1">
          <mxGeometry x="1190" y="1160" width="160" height="80" as="geometry" />
        </mxCell>
        <mxCell id="-gEA4kKyqDbF77y-FPu--34" value="&amp;lt;&amp;lt;extend&amp;gt;&amp;gt;" style="html=1;verticalAlign=bottom;labelBackgroundColor=none;endArrow=open;endFill=0;dashed=1;rounded=0;entryX=0.329;entryY=0.062;entryDx=0;entryDy=0;exitX=1;exitY=1;exitDx=0;exitDy=0;entryPerimeter=0;" parent="1" source="9z4CYQN5zjKrBTdGZNif-33" target="-gEA4kKyqDbF77y-FPu--33" edge="1">
          <mxGeometry width="160" relative="1" as="geometry">
            <mxPoint x="1130" y="1040" as="sourcePoint" />
            <mxPoint x="1290" y="1040" as="targetPoint" />
          </mxGeometry>
        </mxCell>
      </root>
    </mxGraphModel>
  </diagram>
  <diagram id="6IVXUTwrtnkHxcC4hNy8" name="классов ViewModel">
    <mxGraphModel dx="903" dy="-807" grid="0" gridSize="10" guides="1" tooltips="1" connect="1" arrows="1" fold="1" page="0" pageScale="1" pageWidth="827" pageHeight="1169" math="0" shadow="0">
      <root>
        <mxCell id="0" />
        <mxCell id="1" parent="0" />
        <mxCell id="cJg6R2QU0ELoJR-tyn92-19" value="AddSubscriptionVM" style="swimlane;fontStyle=1;align=center;verticalAlign=top;childLayout=stackLayout;horizontal=1;startSize=26;horizontalStack=0;resizeParent=1;resizeLast=0;collapsible=1;marginBottom=0;rounded=0;shadow=0;strokeWidth=1;" parent="1" vertex="1">
          <mxGeometry x="648" y="2154" width="291" height="240" as="geometry">
            <mxRectangle x="230" y="140" width="160" height="26" as="alternateBounds" />
          </mxGeometry>
        </mxCell>
        <mxCell id="cJg6R2QU0ELoJR-tyn92-20" value="- _name: string&#xa;- _description: string&#xa;- _price: string&#xa;- _imagePath: string&#xa;- _duration: string&#xa;- _subscriptionType: string&#xa;- _subscriptionService: SubscriptionService&#xa;- _disposed: bool" style="text;align=left;verticalAlign=top;spacingLeft=4;spacingRight=4;overflow=hidden;rotatable=0;points=[[0,0.5],[1,0.5]];portConstraint=eastwest;rounded=0;shadow=0;html=0;" parent="cJg6R2QU0ELoJR-tyn92-19" vertex="1">
          <mxGeometry y="26" width="291" height="128" as="geometry" />
        </mxCell>
        <mxCell id="cJg6R2QU0ELoJR-tyn92-21" value="- AddSubscriptionVM()&#xa;- CanExecuteSaveCommand(): bool&#xa;- ExecuteSaveCommand()&#xa;- ExecuteCancelCommand()&#xa;- ExecuteSelectImageCommand()" style="text;align=left;verticalAlign=top;spacingLeft=4;spacingRight=4;overflow=hidden;rotatable=0;points=[[0,0.5],[1,0.5]];portConstraint=eastwest;rounded=0;shadow=0;html=0;" parent="cJg6R2QU0ELoJR-tyn92-19" vertex="1">
          <mxGeometry y="154" width="291" height="83" as="geometry" />
        </mxCell>
        <mxCell id="cJg6R2QU0ELoJR-tyn92-41" value="" style="endArrow=none;html=1;rounded=0;entryX=0.996;entryY=0.995;entryDx=0;entryDy=0;entryPerimeter=0;exitX=-0.001;exitY=0.996;exitDx=0;exitDy=0;exitPerimeter=0;" parent="cJg6R2QU0ELoJR-tyn92-19" source="cJg6R2QU0ELoJR-tyn92-20" target="cJg6R2QU0ELoJR-tyn92-20" edge="1">
          <mxGeometry width="50" height="50" relative="1" as="geometry">
            <mxPoint x="2" y="388" as="sourcePoint" />
            <mxPoint x="292" y="389" as="targetPoint" />
          </mxGeometry>
        </mxCell>
        <mxCell id="hnAyJhJV90OyA6ZswWrU-1" value="AdminPanelViewModel" style="swimlane;fontStyle=1;align=center;verticalAlign=top;childLayout=stackLayout;horizontal=1;startSize=26;horizontalStack=0;resizeParent=1;resizeLast=0;collapsible=1;marginBottom=0;rounded=0;shadow=0;strokeWidth=1;" parent="1" vertex="1">
          <mxGeometry x="650" y="1832" width="291" height="311" as="geometry">
            <mxRectangle x="230" y="140" width="160" height="26" as="alternateBounds" />
          </mxGeometry>
        </mxCell>
        <mxCell id="hnAyJhJV90OyA6ZswWrU-2" value="- _context: AppDbContext&#xa;- _userService: UserService&#xa;- _backupService: DatabaseBackupService&#xa;- _isLoading: bool&#xa;- _usersTable: ObservableCollection&lt;User&gt;&#xa;- _selectedUser: User" style="text;align=left;verticalAlign=top;spacingLeft=4;spacingRight=4;overflow=hidden;rotatable=0;points=[[0,0.5],[1,0.5]];portConstraint=eastwest;rounded=0;shadow=0;html=0;" parent="hnAyJhJV90OyA6ZswWrU-1" vertex="1">
          <mxGeometry y="26" width="291" height="100" as="geometry" />
        </mxCell>
        <mxCell id="hnAyJhJV90OyA6ZswWrU-3" value="- AdminPanelViewModel()&#xa;- ExecuteExportToJsonCommand()&#xa;- ExecuteRefreshCommand()&#xa;- ChangeUserRole(user: User): bool&#xa;- ExecuteBlockUserCommand()&#xa;- ExecuteDeleteUserCommand()&#xa;- ExecuteAddUserCommand()&#xa;- LoadUsersData()&#xa;- IsLoginUnique(login: string): bool&#xa;- IsEmailUnique(email: string): bool&#xa;- SaveUserChanges(user: User): bool&#xa;- GetCurrentUser(): User" style="text;align=left;verticalAlign=top;spacingLeft=4;spacingRight=4;overflow=hidden;rotatable=0;points=[[0,0.5],[1,0.5]];portConstraint=eastwest;rounded=0;shadow=0;html=0;" parent="hnAyJhJV90OyA6ZswWrU-1" vertex="1">
          <mxGeometry y="126" width="291" height="185" as="geometry" />
        </mxCell>
        <mxCell id="hnAyJhJV90OyA6ZswWrU-4" value="" style="endArrow=none;html=1;rounded=0;entryX=0.996;entryY=0.995;entryDx=0;entryDy=0;entryPerimeter=0;exitX=-0.001;exitY=0.996;exitDx=0;exitDy=0;exitPerimeter=0;" parent="hnAyJhJV90OyA6ZswWrU-1" source="hnAyJhJV90OyA6ZswWrU-2" target="hnAyJhJV90OyA6ZswWrU-2" edge="1">
          <mxGeometry width="50" height="50" relative="1" as="geometry">
            <mxPoint x="2" y="388" as="sourcePoint" />
            <mxPoint x="292" y="389" as="targetPoint" />
          </mxGeometry>
        </mxCell>
        <mxCell id="hnAyJhJV90OyA6ZswWrU-5" value="ClientPlansDetailsViewModel" style="swimlane;fontStyle=1;align=center;verticalAlign=top;childLayout=stackLayout;horizontal=1;startSize=26;horizontalStack=0;resizeParent=1;resizeLast=0;collapsible=1;marginBottom=0;rounded=0;shadow=0;strokeWidth=1;" parent="1" vertex="1">
          <mxGeometry x="955" y="1832" width="295" height="662" as="geometry">
            <mxRectangle x="230" y="140" width="160" height="26" as="alternateBounds" />
          </mxGeometry>
        </mxCell>
        <mxCell id="hnAyJhJV90OyA6ZswWrU-6" value="- _workoutPlanService: WorkoutPlanService&#xa;- _nutritionPlanService: NutritionPlanService&#xa;- _userService: UserService&#xa;- _client: User&#xa;- _workoutPlans: ObservableCollection&lt;WorkoutPlan&gt;&#xa;- _nutritionPlans: ObservableCollection&lt;NutritionPlan&gt;&#xa;- _selectedWorkoutPlan: WorkoutPlan&#xa;- _selectedNutritionPlan: NutritionPlan&#xa;- _isLoading: bool&#xa;- _selectedTabIndex: int&#xa;- _newNutritionPlanTitle: string&#xa;- _newNutritionPlanDescription: string&#xa;- _newNutritionPlanStartDate: DateTime&#xa;- _newNutritionPlanEndDate: DateTime&#xa;- _newWorkoutPlanTitle: string&#xa;- _newWorkoutPlanDescription: string&#xa;- _newWorkoutPlanStartDate: DateTime&#xa;- _newWorkoutPlanEndDate: DateTime&#xa;- _isNutritionPlanEditMode: bool&#xa;- _isEditingExistingNutritionPlan: bool&#xa;- _isWorkoutPlanEditMode: bool&#xa;- _isEditingExistingWorkoutPlan: bool&#xa;- _currentDate: DateTime" style="text;align=left;verticalAlign=top;spacingLeft=4;spacingRight=4;overflow=hidden;rotatable=0;points=[[0,0.5],[1,0.5]];portConstraint=eastwest;rounded=0;shadow=0;html=0;" parent="hnAyJhJV90OyA6ZswWrU-5" vertex="1">
          <mxGeometry y="26" width="295" height="340" as="geometry" />
        </mxCell>
        <mxCell id="hnAyJhJV90OyA6ZswWrU-7" value="- ClientPlansDetailsViewModel(client: User)&#xa;- ResetNewNutritionPlanFields()&#xa;- ExecuteAddNutritionPlan()&#xa;- ExecuteEditNutritionPlan()&#xa;- ExecuteDeleteNutritionPlan()&#xa;- ExecuteSaveNutritionPlan()&#xa;- ExecuteCancelNutritionPlanEdit()&#xa;- CanExecuteEditNutritionPlan(): bool&#xa;- CanExecuteDeleteNutritionPlan(): bool&#xa;- CanExecuteSaveNutritionPlan(): bool&#xa;- LoadClientPlans()&#xa;- ExecuteAddWorkoutPlan()&#xa;- ExecuteEditWorkoutPlan()&#xa;- ExecuteDeleteWorkoutPlan()&#xa;- ExecuteSaveWorkoutPlan()&#xa;- ExecuteCancelWorkoutPlanEdit()&#xa;- CanExecuteEditWorkoutPlan(): bool&#xa;- CanExecuteDeleteWorkoutPlan(): bool&#xa;- CanExecuteSaveWorkoutPlan(): bool&#xa;- ResetNewWorkoutPlanFields()" style="text;align=left;verticalAlign=top;spacingLeft=4;spacingRight=4;overflow=hidden;rotatable=0;points=[[0,0.5],[1,0.5]];portConstraint=eastwest;rounded=0;shadow=0;html=0;" parent="hnAyJhJV90OyA6ZswWrU-5" vertex="1">
          <mxGeometry y="366" width="295" height="293" as="geometry" />
        </mxCell>
        <mxCell id="hnAyJhJV90OyA6ZswWrU-8" value="" style="endArrow=none;html=1;rounded=0;entryX=0.996;entryY=0.995;entryDx=0;entryDy=0;entryPerimeter=0;exitX=-0.001;exitY=0.996;exitDx=0;exitDy=0;exitPerimeter=0;" parent="hnAyJhJV90OyA6ZswWrU-5" source="hnAyJhJV90OyA6ZswWrU-6" target="hnAyJhJV90OyA6ZswWrU-6" edge="1">
          <mxGeometry width="50" height="50" relative="1" as="geometry">
            <mxPoint x="2" y="388" as="sourcePoint" />
            <mxPoint x="292" y="389" as="targetPoint" />
          </mxGeometry>
        </mxCell>
        <mxCell id="hnAyJhJV90OyA6ZswWrU-9" value="CoachClientsViewModel" style="swimlane;fontStyle=1;align=center;verticalAlign=top;childLayout=stackLayout;horizontal=1;startSize=26;horizontalStack=0;resizeParent=1;resizeLast=0;collapsible=1;marginBottom=0;rounded=0;shadow=0;strokeWidth=1;" parent="1" vertex="1">
          <mxGeometry x="1288" y="1832" width="291" height="374" as="geometry">
            <mxRectangle x="230" y="140" width="160" height="26" as="alternateBounds" />
          </mxGeometry>
        </mxCell>
        <mxCell id="hnAyJhJV90OyA6ZswWrU-10" value="- _userService: UserService&#xa;- _coachClientService: CoachClientService&#xa;- _currentCoach: User&#xa;- _clients: ObservableCollection&lt;User&gt;&#xa;- _availableClients: ObservableCollection&lt;User&gt;&#xa;- _selectedClient: User&#xa;- _selectedAvailableClient: User&#xa;- _selectedTabIndex: int&#xa;- _clientAssignmentDates: Dictionary&lt;int, DateTime&gt;&#xa;- _currentSortType: SortType" style="text;align=left;verticalAlign=top;spacingLeft=4;spacingRight=4;overflow=hidden;rotatable=0;points=[[0,0.5],[1,0.5]];portConstraint=eastwest;rounded=0;shadow=0;html=0;" parent="hnAyJhJV90OyA6ZswWrU-9" vertex="1">
          <mxGeometry y="26" width="291" height="160" as="geometry" />
        </mxCell>
        <mxCell id="hnAyJhJV90OyA6ZswWrU-11" value="- CoachClientsViewModel(coach: User)&#xa;- LoadClients()&#xa;- SortClients(clients: List&lt;User&gt;): List&lt;User&gt;&#xa;- SortClientsList(sortType: SortType)&#xa;- LoadAvailableClients()&#xa;- AddClientToCoach(client: User)&#xa;- RemoveClientFromCoach(client: User)&#xa;- ExecuteAddWorkoutPlan()&#xa;- ExecuteEditWorkoutPlan()&#xa;- ExecuteDeleteWorkoutPlan()&#xa;- ExecuteSaveWorkoutPlan()&#xa;- ExecuteCancelWorkoutPlanEdit()" style="text;align=left;verticalAlign=top;spacingLeft=4;spacingRight=4;overflow=hidden;rotatable=0;points=[[0,0.5],[1,0.5]];portConstraint=eastwest;rounded=0;shadow=0;html=0;" parent="hnAyJhJV90OyA6ZswWrU-9" vertex="1">
          <mxGeometry y="186" width="291" height="185" as="geometry" />
        </mxCell>
        <mxCell id="hnAyJhJV90OyA6ZswWrU-12" value="" style="endArrow=none;html=1;rounded=0;entryX=0.996;entryY=0.995;entryDx=0;entryDy=0;entryPerimeter=0;exitX=-0.001;exitY=0.996;exitDx=0;exitDy=0;exitPerimeter=0;" parent="hnAyJhJV90OyA6ZswWrU-9" source="hnAyJhJV90OyA6ZswWrU-10" target="hnAyJhJV90OyA6ZswWrU-10" edge="1">
          <mxGeometry width="50" height="50" relative="1" as="geometry">
            <mxPoint x="2" y="388" as="sourcePoint" />
            <mxPoint x="292" y="389" as="targetPoint" />
          </mxGeometry>
        </mxCell>
        <mxCell id="hnAyJhJV90OyA6ZswWrU-13" value="PersonalAccountVM" style="swimlane;fontStyle=1;align=center;verticalAlign=top;childLayout=stackLayout;horizontal=1;startSize=26;horizontalStack=0;resizeParent=1;resizeLast=0;collapsible=1;marginBottom=0;rounded=0;shadow=0;strokeWidth=1;" parent="1" vertex="1">
          <mxGeometry x="1655" y="1828" width="291" height="498" as="geometry">
            <mxRectangle x="230" y="140" width="160" height="26" as="alternateBounds" />
          </mxGeometry>
        </mxCell>
        <mxCell id="hnAyJhJV90OyA6ZswWrU-14" value="- _user: User&#xa;- _workoutPlanService: IWorkoutPlanService&#xa;- _nutritionPlanService: INutritionPlanService&#xa;- _originalUsername: string&#xa;- _originalEmail: string&#xa;- _originalPassword: string" style="text;align=left;verticalAlign=top;spacingLeft=4;spacingRight=4;overflow=hidden;rotatable=0;points=[[0,0.5],[1,0.5]];portConstraint=eastwest;rounded=0;shadow=0;html=0;" parent="hnAyJhJV90OyA6ZswWrU-13" vertex="1">
          <mxGeometry y="26" width="291" height="107" as="geometry" />
        </mxCell>
        <mxCell id="hnAyJhJV90OyA6ZswWrU-15" value="- PersonalAccountVM(user: User, workoutPlanService: &#xa;IWorkoutPlanService, nutritionPlanService: &#xa;INutritionPlanService)&#xa;- LoadWorkoutPlans()&#xa;- LoadNutritionPlans()&#xa;- LoadUserSubscriptions()&#xa;- ExecuteRefreshWorkoutPlans()&#xa;- ExecuteRefreshNutritionPlans()&#xa;- ExecuteRefreshSubscriptions()&#xa;- ExecuteCancelSubscription()&#xa;- ExecuteEdit()&#xa;- CanExecuteSave(): bool&#xa;- ExecuteSave()&#xa;- ValidateUsername(username: string): bool&#xa;- ValidateFullName(fullName: string): bool&#xa;- ExecuteCancel()&#xa;- ExecuteClose()&#xa;- CanExecuteChangePassword(): bool&#xa;- ExecuteChangePassword()&#xa;- ValidatePassword(password: string): bool&#xa;- ExecuteApplyLanguage()&#xa;- ExecuteApplyTheme()&#xa;- ClearPasswordFields()&#xa;- ExecuteMarkWorkoutPlanCompleted()&#xa;- ExecuteMarkNutritionPlanCompleted()" style="text;align=left;verticalAlign=top;spacingLeft=4;spacingRight=4;overflow=hidden;rotatable=0;points=[[0,0.5],[1,0.5]];portConstraint=eastwest;rounded=0;shadow=0;html=0;" parent="hnAyJhJV90OyA6ZswWrU-13" vertex="1">
          <mxGeometry y="133" width="291" height="361" as="geometry" />
        </mxCell>
        <mxCell id="hnAyJhJV90OyA6ZswWrU-16" value="" style="endArrow=none;html=1;rounded=0;exitX=0.012;exitY=0.967;exitDx=0;exitDy=0;exitPerimeter=0;" parent="hnAyJhJV90OyA6ZswWrU-13" source="hnAyJhJV90OyA6ZswWrU-14" edge="1">
          <mxGeometry width="50" height="50" relative="1" as="geometry">
            <mxPoint x="2" y="388" as="sourcePoint" />
            <mxPoint x="290" y="129" as="targetPoint" />
            <Array as="points">
              <mxPoint x="140" y="129" />
            </Array>
          </mxGeometry>
        </mxCell>
        <mxCell id="hnAyJhJV90OyA6ZswWrU-17" value="RegistrationVM" style="swimlane;fontStyle=1;align=center;verticalAlign=top;childLayout=stackLayout;horizontal=1;startSize=26;horizontalStack=0;resizeParent=1;resizeLast=0;collapsible=1;marginBottom=0;rounded=0;shadow=0;strokeWidth=1;" parent="1" vertex="1">
          <mxGeometry x="955" y="2498" width="322" height="308" as="geometry">
            <mxRectangle x="230" y="140" width="160" height="26" as="alternateBounds" />
          </mxGeometry>
        </mxCell>
        <mxCell id="hnAyJhJV90OyA6ZswWrU-18" value="- _login: string&#xa;- _password: string&#xa;- _fullname: string&#xa;- _email: string&#xa;- _regLogin: string&#xa;- _regPassword: string&#xa;- _confirmPassword: string&#xa;- _users: List&lt;User&gt;&#xa;- _userService: UserService&#xa;- _databaseConnectionService: &#xa;DatabaseConnectionService" style="text;align=left;verticalAlign=top;spacingLeft=4;spacingRight=4;overflow=hidden;rotatable=0;points=[[0,0.5],[1,0.5]];portConstraint=eastwest;rounded=0;shadow=0;html=0;" parent="hnAyJhJV90OyA6ZswWrU-17" vertex="1">
          <mxGeometry y="26" width="322" height="167" as="geometry" />
        </mxCell>
        <mxCell id="hnAyJhJV90OyA6ZswWrU-19" value="- RegistrationVM()&#xa;- LoadUsers(): List&lt;User&gt;&#xa;- ExecuteEnterCommand()&#xa;- ExecuteRegisterCommand()&#xa;- IsValid(input: string, pattern: string, errorKey: string): bool&#xa;- ShowWarning(messageKey: string, titleKey: string): void&#xa;- GetRoleNameInCurrentLanguage(role: UserRole): string" style="text;align=left;verticalAlign=top;spacingLeft=4;spacingRight=4;overflow=hidden;rotatable=0;points=[[0,0.5],[1,0.5]];portConstraint=eastwest;rounded=0;shadow=0;html=0;" parent="hnAyJhJV90OyA6ZswWrU-17" vertex="1">
          <mxGeometry y="193" width="322" height="112" as="geometry" />
        </mxCell>
        <mxCell id="hnAyJhJV90OyA6ZswWrU-20" value="" style="endArrow=none;html=1;rounded=0;entryX=0.996;entryY=0.995;entryDx=0;entryDy=0;entryPerimeter=0;exitX=-0.001;exitY=0.996;exitDx=0;exitDy=0;exitPerimeter=0;" parent="hnAyJhJV90OyA6ZswWrU-17" source="hnAyJhJV90OyA6ZswWrU-18" target="hnAyJhJV90OyA6ZswWrU-18" edge="1">
          <mxGeometry width="50" height="50" relative="1" as="geometry">
            <mxPoint x="2" y="388" as="sourcePoint" />
            <mxPoint x="292" y="389" as="targetPoint" />
          </mxGeometry>
        </mxCell>
        <mxCell id="hnAyJhJV90OyA6ZswWrU-21" value="SubscribeDialogViewModel" style="swimlane;fontStyle=1;align=center;verticalAlign=top;childLayout=stackLayout;horizontal=1;startSize=26;horizontalStack=0;resizeParent=1;resizeLast=0;collapsible=1;marginBottom=0;rounded=0;shadow=0;strokeWidth=1;" parent="1" vertex="1">
          <mxGeometry x="647" y="2609" width="291" height="200" as="geometry">
            <mxRectangle x="230" y="140" width="160" height="26" as="alternateBounds" />
          </mxGeometry>
        </mxCell>
        <mxCell id="hnAyJhJV90OyA6ZswWrU-22" value="- _fullName: string&#xa;- _email: string&#xa;- _subscriptionName: string&#xa;- _subscriptionPrice: decimal&#xa;- _subscriptionDuration: string&#xa;- _subscriptionId: int&#xa;- _hasUserData: bool" style="text;align=left;verticalAlign=top;spacingLeft=4;spacingRight=4;overflow=hidden;rotatable=0;points=[[0,0.5],[1,0.5]];portConstraint=eastwest;rounded=0;shadow=0;html=0;" parent="hnAyJhJV90OyA6ZswWrU-21" vertex="1">
          <mxGeometry y="26" width="291" height="114" as="geometry" />
        </mxCell>
        <mxCell id="hnAyJhJV90OyA6ZswWrU-23" value="- SubscribeDialogViewModel(subscription: &#xa;Subscription, currentUser: User)&#xa;- IsValidEmail(email: string): bool" style="text;align=left;verticalAlign=top;spacingLeft=4;spacingRight=4;overflow=hidden;rotatable=0;points=[[0,0.5],[1,0.5]];portConstraint=eastwest;rounded=0;shadow=0;html=0;" parent="hnAyJhJV90OyA6ZswWrU-21" vertex="1">
          <mxGeometry y="140" width="291" height="60" as="geometry" />
        </mxCell>
        <mxCell id="hnAyJhJV90OyA6ZswWrU-24" value="" style="endArrow=none;html=1;rounded=0;entryX=0.996;entryY=0.995;entryDx=0;entryDy=0;entryPerimeter=0;exitX=-0.001;exitY=0.996;exitDx=0;exitDy=0;exitPerimeter=0;" parent="hnAyJhJV90OyA6ZswWrU-21" source="hnAyJhJV90OyA6ZswWrU-22" target="hnAyJhJV90OyA6ZswWrU-22" edge="1">
          <mxGeometry width="50" height="50" relative="1" as="geometry">
            <mxPoint x="2" y="388" as="sourcePoint" />
            <mxPoint x="292" y="389" as="targetPoint" />
          </mxGeometry>
        </mxCell>
        <mxCell id="hnAyJhJV90OyA6ZswWrU-25" value="PersonalAccountVM" style="swimlane;fontStyle=1;align=center;verticalAlign=top;childLayout=stackLayout;horizontal=1;startSize=26;horizontalStack=0;resizeParent=1;resizeLast=0;collapsible=1;marginBottom=0;rounded=0;shadow=0;strokeWidth=1;" parent="1" vertex="1">
          <mxGeometry x="1655" y="2343" width="297" height="287" as="geometry">
            <mxRectangle x="230" y="140" width="160" height="26" as="alternateBounds" />
          </mxGeometry>
        </mxCell>
        <mxCell id="hnAyJhJV90OyA6ZswWrU-26" value="- _user: User&#xa;- _workoutPlanService: IWorkoutPlanService&#xa;- _nutritionPlanService: INutritionPlanService&#xa;- _originalUsername: string&#xa;- _originalEmail: string&#xa;- _originalPassword: string&#xa;- _isLoading: bool&#xa;- _hasSubscriptions: bool" style="text;align=left;verticalAlign=top;spacingLeft=4;spacingRight=4;overflow=hidden;rotatable=0;points=[[0,0.5],[1,0.5]];portConstraint=eastwest;rounded=0;shadow=0;html=0;" parent="hnAyJhJV90OyA6ZswWrU-25" vertex="1">
          <mxGeometry y="26" width="297" height="128" as="geometry" />
        </mxCell>
        <mxCell id="hnAyJhJV90OyA6ZswWrU-27" value="- PersonalAccountVM(user: User, workoutPlanService: &#xa;IWorkoutPlanService, nutritionPlanService: &#xa;INutritionPlanService)&#xa;- LoadWorkoutPlans()&#xa;- LoadNutritionPlans()&#xa;- LoadUserSubscriptions()&#xa;- ExecuteSave()&#xa;- ExecuteEdit()" style="text;align=left;verticalAlign=top;spacingLeft=4;spacingRight=4;overflow=hidden;rotatable=0;points=[[0,0.5],[1,0.5]];portConstraint=eastwest;rounded=0;shadow=0;html=0;" parent="hnAyJhJV90OyA6ZswWrU-25" vertex="1">
          <mxGeometry y="154" width="297" height="129" as="geometry" />
        </mxCell>
        <mxCell id="hnAyJhJV90OyA6ZswWrU-28" value="" style="endArrow=none;html=1;rounded=0;entryX=0.996;entryY=0.995;entryDx=0;entryDy=0;entryPerimeter=0;exitX=-0.001;exitY=0.996;exitDx=0;exitDy=0;exitPerimeter=0;" parent="hnAyJhJV90OyA6ZswWrU-25" source="hnAyJhJV90OyA6ZswWrU-26" target="hnAyJhJV90OyA6ZswWrU-26" edge="1">
          <mxGeometry width="50" height="50" relative="1" as="geometry">
            <mxPoint x="2" y="388" as="sourcePoint" />
            <mxPoint x="292" y="389" as="targetPoint" />
          </mxGeometry>
        </mxCell>
        <mxCell id="hnAyJhJV90OyA6ZswWrU-29" value="SubscriptionsVM" style="swimlane;fontStyle=1;align=center;verticalAlign=top;childLayout=stackLayout;horizontal=1;startSize=26;horizontalStack=0;resizeParent=1;resizeLast=0;collapsible=1;marginBottom=0;rounded=0;shadow=0;strokeWidth=1;" parent="1" vertex="1">
          <mxGeometry x="1294" y="2228" width="322" height="354" as="geometry">
            <mxRectangle x="230" y="140" width="160" height="26" as="alternateBounds" />
          </mxGeometry>
        </mxCell>
        <mxCell id="hnAyJhJV90OyA6ZswWrU-30" value="- _mainWindow: MainWindow&#xa;- _allSubscriptions: List&lt;Subscription&gt;&#xa;- _filteredSubscriptions: ObservableCollection&#xa;&lt;Subscription&gt;&#xa;- _subscriptionService: SubscriptionService&#xa;- _isFiltersApplied: bool&#xa;- _searchText: string&#xa;- _minCost: string&#xa;- _maxCost: string&#xa;- _selectedType: ComboBoxItem&#xa;- _selectedDuration: ComboBoxItem" style="text;align=left;verticalAlign=top;spacingLeft=4;spacingRight=4;overflow=hidden;rotatable=0;points=[[0,0.5],[1,0.5]];portConstraint=eastwest;rounded=0;shadow=0;html=0;" parent="hnAyJhJV90OyA6ZswWrU-29" vertex="1">
          <mxGeometry y="26" width="322" height="169" as="geometry" />
        </mxCell>
        <mxCell id="hnAyJhJV90OyA6ZswWrU-31" value="- SubscriptionsVM(MainWindow mainWindow, &#xa;List&lt;Subscription&gt; subscriptions)&#xa;- LoadAllSubscriptions(List&lt;Subscription&gt; subscriptions)&#xa;- RefreshSubscriptions()&#xa;- ApplyFilters()&#xa;- UpdateSubscriptions(List&lt;Subscription&gt; subscriptions)&#xa;- ResetFilters()&#xa;- ValidateAndCorrectPrices()&#xa;- OnLanguageChanged(object sender, string languageCode)&#xa;- ToggleFilterPanel(object parameter)" style="text;align=left;verticalAlign=top;spacingLeft=4;spacingRight=4;overflow=hidden;rotatable=0;points=[[0,0.5],[1,0.5]];portConstraint=eastwest;rounded=0;shadow=0;html=0;" parent="hnAyJhJV90OyA6ZswWrU-29" vertex="1">
          <mxGeometry y="195" width="322" height="153" as="geometry" />
        </mxCell>
        <mxCell id="hnAyJhJV90OyA6ZswWrU-32" value="" style="endArrow=none;html=1;rounded=0;entryX=0.996;entryY=0.995;entryDx=0;entryDy=0;entryPerimeter=0;exitX=-0.001;exitY=0.996;exitDx=0;exitDy=0;exitPerimeter=0;" parent="hnAyJhJV90OyA6ZswWrU-29" source="hnAyJhJV90OyA6ZswWrU-30" target="hnAyJhJV90OyA6ZswWrU-30" edge="1">
          <mxGeometry width="50" height="50" relative="1" as="geometry">
            <mxPoint x="2" y="388" as="sourcePoint" />
            <mxPoint x="292" y="389" as="targetPoint" />
          </mxGeometry>
        </mxCell>
        <mxCell id="hnAyJhJV90OyA6ZswWrU-33" value="UserSubscriptionViewModel" style="swimlane;fontStyle=1;align=center;verticalAlign=top;childLayout=stackLayout;horizontal=1;startSize=26;horizontalStack=0;resizeParent=1;resizeLast=0;collapsible=1;marginBottom=0;rounded=0;shadow=0;strokeWidth=1;" parent="1" vertex="1">
          <mxGeometry x="647" y="2404" width="292" height="195" as="geometry">
            <mxRectangle x="230" y="140" width="160" height="26" as="alternateBounds" />
          </mxGeometry>
        </mxCell>
        <mxCell id="hnAyJhJV90OyA6ZswWrU-34" value="+ Id: int&#xa;+ PurchaseDate: DateTime&#xa;+ ExpiryDate: DateTime&#xa;+ IsExpired: bool&#xa;+ StatusText: string&#xa;+ StatusColor: Brush&#xa;- _userSubscription: UserSubscription" style="text;align=left;verticalAlign=top;spacingLeft=4;spacingRight=4;overflow=hidden;rotatable=0;points=[[0,0.5],[1,0.5]];portConstraint=eastwest;rounded=0;shadow=0;html=0;" parent="hnAyJhJV90OyA6ZswWrU-33" vertex="1">
          <mxGeometry y="26" width="292" height="117" as="geometry" />
        </mxCell>
        <mxCell id="hnAyJhJV90OyA6ZswWrU-35" value="- UserSubscriptionViewModel(userSubscription: &#xa;UserSubscription)" style="text;align=left;verticalAlign=top;spacingLeft=4;spacingRight=4;overflow=hidden;rotatable=0;points=[[0,0.5],[1,0.5]];portConstraint=eastwest;rounded=0;shadow=0;html=0;" parent="hnAyJhJV90OyA6ZswWrU-33" vertex="1">
          <mxGeometry y="143" width="292" height="40" as="geometry" />
        </mxCell>
        <mxCell id="hnAyJhJV90OyA6ZswWrU-36" value="" style="endArrow=none;html=1;rounded=0;entryX=0.996;entryY=0.995;entryDx=0;entryDy=0;entryPerimeter=0;exitX=-0.001;exitY=0.996;exitDx=0;exitDy=0;exitPerimeter=0;" parent="hnAyJhJV90OyA6ZswWrU-33" source="hnAyJhJV90OyA6ZswWrU-34" target="hnAyJhJV90OyA6ZswWrU-34" edge="1">
          <mxGeometry width="50" height="50" relative="1" as="geometry">
            <mxPoint x="2" y="388" as="sourcePoint" />
            <mxPoint x="292" y="389" as="targetPoint" />
          </mxGeometry>
        </mxCell>
        <mxCell id="hnAyJhJV90OyA6ZswWrU-37" value="ViewModelBase" style="swimlane;fontStyle=1;align=center;verticalAlign=top;childLayout=stackLayout;horizontal=1;startSize=26;horizontalStack=0;resizeParent=1;resizeLast=0;collapsible=1;marginBottom=0;rounded=0;shadow=0;strokeWidth=1;" parent="1" vertex="1">
          <mxGeometry x="1303" y="2609" width="291" height="108" as="geometry">
            <mxRectangle x="230" y="140" width="160" height="26" as="alternateBounds" />
          </mxGeometry>
        </mxCell>
        <mxCell id="hnAyJhJV90OyA6ZswWrU-38" value="+ PropertyChanged: &#xa;event PropertyChangedEventHandler" style="text;align=left;verticalAlign=top;spacingLeft=4;spacingRight=4;overflow=hidden;rotatable=0;points=[[0,0.5],[1,0.5]];portConstraint=eastwest;rounded=0;shadow=0;html=0;" parent="hnAyJhJV90OyA6ZswWrU-37" vertex="1">
          <mxGeometry y="26" width="291" height="43" as="geometry" />
        </mxCell>
        <mxCell id="hnAyJhJV90OyA6ZswWrU-39" value="- OnPropertyChanged(propertyName: string)" style="text;align=left;verticalAlign=top;spacingLeft=4;spacingRight=4;overflow=hidden;rotatable=0;points=[[0,0.5],[1,0.5]];portConstraint=eastwest;rounded=0;shadow=0;html=0;" parent="hnAyJhJV90OyA6ZswWrU-37" vertex="1">
          <mxGeometry y="69" width="291" height="35" as="geometry" />
        </mxCell>
        <mxCell id="hnAyJhJV90OyA6ZswWrU-40" value="" style="endArrow=none;html=1;rounded=0;entryX=0.996;entryY=0.995;entryDx=0;entryDy=0;entryPerimeter=0;exitX=-0.001;exitY=0.996;exitDx=0;exitDy=0;exitPerimeter=0;" parent="hnAyJhJV90OyA6ZswWrU-37" source="hnAyJhJV90OyA6ZswWrU-38" target="hnAyJhJV90OyA6ZswWrU-38" edge="1">
          <mxGeometry width="50" height="50" relative="1" as="geometry">
            <mxPoint x="2" y="388" as="sourcePoint" />
            <mxPoint x="292" y="389" as="targetPoint" />
          </mxGeometry>
        </mxCell>
      </root>
    </mxGraphModel>
  </diagram>
  <diagram id="q3VnRN3XmXd0dc53PKVP" name="последовательности">
    <mxGraphModel dx="1042" dy="634" grid="1" gridSize="10" guides="1" tooltips="1" connect="1" arrows="1" fold="1" page="1" pageScale="1" pageWidth="1169" pageHeight="827" math="0" shadow="0">
      <root>
        <mxCell id="0" />
        <mxCell id="1" parent="0" />
        <mxCell id="K7q8_SuDNJuuSoEOJocn-38" value="App" style="shape=umlLifeline;perimeter=lifelinePerimeter;whiteSpace=wrap;html=1;container=1;collapsible=0;recursiveResize=0;outlineConnect=0;rounded=1;shadow=0;comic=0;labelBackgroundColor=none;strokeWidth=1;fontFamily=Verdana;fontSize=12;align=center;" parent="1" vertex="1">
          <mxGeometry x="240" y="80" width="100" height="380" as="geometry" />
        </mxCell>
        <mxCell id="K7q8_SuDNJuuSoEOJocn-39" value="" style="html=1;points=[];perimeter=orthogonalPerimeter;rounded=0;shadow=0;comic=0;labelBackgroundColor=none;strokeWidth=1;fontFamily=Verdana;fontSize=12;align=center;" parent="K7q8_SuDNJuuSoEOJocn-38" vertex="1">
          <mxGeometry x="45" y="100" width="10" height="230" as="geometry" />
        </mxCell>
        <mxCell id="K7q8_SuDNJuuSoEOJocn-40" value="Server" style="shape=umlLifeline;perimeter=lifelinePerimeter;whiteSpace=wrap;html=1;container=1;collapsible=0;recursiveResize=0;outlineConnect=0;rounded=1;shadow=0;comic=0;labelBackgroundColor=none;strokeWidth=1;fontFamily=Verdana;fontSize=12;align=center;" parent="1" vertex="1">
          <mxGeometry x="430" y="80" width="100" height="380" as="geometry" />
        </mxCell>
        <mxCell id="K7q8_SuDNJuuSoEOJocn-41" value="" style="html=1;points=[];perimeter=orthogonalPerimeter;rounded=0;shadow=0;comic=0;labelBackgroundColor=none;strokeWidth=1;fontFamily=Verdana;fontSize=12;align=center;" parent="K7q8_SuDNJuuSoEOJocn-40" vertex="1">
          <mxGeometry x="45" y="120" width="10" height="200" as="geometry" />
        </mxCell>
        <mxCell id="K7q8_SuDNJuuSoEOJocn-42" value="&lt;span style=&quot;color: rgb(0, 0, 0); font-family: Verdana; font-size: 12px; font-style: normal; font-variant-ligatures: normal; font-variant-caps: normal; font-weight: 400; letter-spacing: normal; orphans: 2; text-align: center; text-indent: 0px; text-transform: none; widows: 2; word-spacing: 0px; -webkit-text-stroke-width: 0px; white-space: nowrap; text-decoration-thickness: initial; text-decoration-style: initial; text-decoration-color: initial; float: none; background-color: light-dark(#ffffff, var(--ge-dark-color, #121212)); display: inline !important;&quot;&gt;коллекция абонементов&lt;/span&gt;&lt;div&gt;&lt;span style=&quot;color: rgb(0, 0, 0); font-family: Verdana; font-size: 12px; font-style: normal; font-variant-ligatures: normal; font-variant-caps: normal; font-weight: 400; letter-spacing: normal; orphans: 2; text-align: center; text-indent: 0px; text-transform: none; widows: 2; word-spacing: 0px; -webkit-text-stroke-width: 0px; white-space: nowrap; background-color: rgb(236, 236, 236); text-decoration-thickness: initial; text-decoration-style: initial; text-decoration-color: initial; display: inline !important; float: none;&quot;&gt;&lt;br&gt;&lt;/span&gt;&lt;/div&gt;" style="text;whiteSpace=wrap;html=1;" parent="K7q8_SuDNJuuSoEOJocn-40" vertex="1">
          <mxGeometry x="-120" y="190" width="180" height="40" as="geometry" />
        </mxCell>
        <mxCell id="K7q8_SuDNJuuSoEOJocn-43" value="&lt;font style=&quot;font-size: 9px;&quot;&gt;SubscriptionService&lt;/font&gt;" style="shape=umlLifeline;perimeter=lifelinePerimeter;whiteSpace=wrap;html=1;container=1;collapsible=0;recursiveResize=0;outlineConnect=0;rounded=1;shadow=0;comic=0;labelBackgroundColor=none;strokeWidth=1;fontFamily=Verdana;fontSize=12;align=center;" parent="1" vertex="1">
          <mxGeometry x="610" y="80" width="100" height="380" as="geometry" />
        </mxCell>
        <mxCell id="K7q8_SuDNJuuSoEOJocn-44" value="" style="html=1;points=[];perimeter=orthogonalPerimeter;rounded=0;shadow=0;comic=0;labelBackgroundColor=none;strokeWidth=1;fontFamily=Verdana;fontSize=12;align=center;" parent="K7q8_SuDNJuuSoEOJocn-43" vertex="1">
          <mxGeometry x="45" y="140" width="10" height="180" as="geometry" />
        </mxCell>
        <mxCell id="K7q8_SuDNJuuSoEOJocn-45" value="&lt;span style=&quot;color: rgb(0, 0, 0); font-family: Verdana; font-size: 12px; font-style: normal; font-variant-ligatures: normal; font-variant-caps: normal; font-weight: 400; letter-spacing: normal; orphans: 2; text-align: center; text-indent: 0px; text-transform: none; widows: 2; word-spacing: 0px; -webkit-text-stroke-width: 0px; white-space: nowrap; text-decoration-thickness: initial; text-decoration-style: initial; text-decoration-color: initial; float: none; background-color: light-dark(rgb(255, 255, 255), rgb(34, 34, 34)); display: inline !important;&quot;&gt;коллекция абонементов&lt;/span&gt;" style="text;whiteSpace=wrap;html=1;" parent="K7q8_SuDNJuuSoEOJocn-43" vertex="1">
          <mxGeometry x="-110" y="190" width="180" height="40" as="geometry" />
        </mxCell>
        <mxCell id="K7q8_SuDNJuuSoEOJocn-46" value="получить абонементы" style="html=1;verticalAlign=bottom;endArrow=block;labelBackgroundColor=none;fontFamily=Verdana;fontSize=12;edgeStyle=elbowEdgeStyle;elbow=vertical;entryX=-0.005;entryY=0.002;entryDx=0;entryDy=0;entryPerimeter=0;" parent="K7q8_SuDNJuuSoEOJocn-43" target="K7q8_SuDNJuuSoEOJocn-44" edge="1">
          <mxGeometry relative="1" as="geometry">
            <mxPoint x="-125" y="140.059393939394" as="sourcePoint" />
            <Array as="points" />
            <mxPoint x="40" y="140" as="targetPoint" />
          </mxGeometry>
        </mxCell>
        <mxCell id="K7q8_SuDNJuuSoEOJocn-47" value="Database" style="shape=umlLifeline;perimeter=lifelinePerimeter;whiteSpace=wrap;html=1;container=1;collapsible=0;recursiveResize=0;outlineConnect=0;rounded=1;shadow=0;comic=0;labelBackgroundColor=none;strokeWidth=1;fontFamily=Verdana;fontSize=12;align=center;" parent="1" vertex="1">
          <mxGeometry x="810" y="80" width="100" height="380" as="geometry" />
        </mxCell>
        <mxCell id="K7q8_SuDNJuuSoEOJocn-48" value="" style="html=1;points=[];perimeter=orthogonalPerimeter;rounded=0;shadow=0;comic=0;labelBackgroundColor=none;strokeWidth=1;fontFamily=Verdana;fontSize=12;align=center;" parent="K7q8_SuDNJuuSoEOJocn-47" vertex="1">
          <mxGeometry x="45" y="150" width="10" height="80" as="geometry" />
        </mxCell>
        <mxCell id="K7q8_SuDNJuuSoEOJocn-49" value="User" style="shape=umlLifeline;perimeter=lifelinePerimeter;whiteSpace=wrap;html=1;container=1;collapsible=0;recursiveResize=0;outlineConnect=0;rounded=1;shadow=0;comic=0;labelBackgroundColor=none;strokeWidth=1;fontFamily=Verdana;fontSize=12;align=center;" parent="1" vertex="1">
          <mxGeometry x="50" y="80" width="100" height="400" as="geometry" />
        </mxCell>
        <mxCell id="K7q8_SuDNJuuSoEOJocn-50" value="" style="html=1;points=[];perimeter=orthogonalPerimeter;rounded=0;shadow=0;comic=0;labelBackgroundColor=none;strokeWidth=1;fontFamily=Verdana;fontSize=12;align=center;" parent="K7q8_SuDNJuuSoEOJocn-49" vertex="1">
          <mxGeometry x="45" y="100" width="10" height="300" as="geometry" />
        </mxCell>
        <mxCell id="K7q8_SuDNJuuSoEOJocn-51" value="запрос абонементов" style="html=1;verticalAlign=bottom;endArrow=block;entryX=0;entryY=0;labelBackgroundColor=none;fontFamily=Verdana;fontSize=12;edgeStyle=elbowEdgeStyle;elbow=vertical;" parent="1" source="K7q8_SuDNJuuSoEOJocn-44" target="K7q8_SuDNJuuSoEOJocn-48" edge="1">
          <mxGeometry relative="1" as="geometry">
            <mxPoint x="650" y="230" as="sourcePoint" />
          </mxGeometry>
        </mxCell>
        <mxCell id="K7q8_SuDNJuuSoEOJocn-52" value="ошибка" style="html=1;verticalAlign=bottom;endArrow=open;dashed=1;endSize=8;labelBackgroundColor=none;fontFamily=Verdana;fontSize=12;edgeStyle=elbowEdgeStyle;elbow=vertical;" parent="1" source="K7q8_SuDNJuuSoEOJocn-47" edge="1">
          <mxGeometry relative="1" as="geometry">
            <mxPoint x="110" y="460" as="targetPoint" />
            <Array as="points">
              <mxPoint x="565" y="460" />
            </Array>
            <mxPoint x="725" y="460" as="sourcePoint" />
          </mxGeometry>
        </mxCell>
        <mxCell id="K7q8_SuDNJuuSoEOJocn-53" value="авторизироваться" style="html=1;verticalAlign=bottom;endArrow=block;entryX=0;entryY=0;labelBackgroundColor=none;fontFamily=Verdana;fontSize=12;edgeStyle=elbowEdgeStyle;elbow=vertical;" parent="1" source="K7q8_SuDNJuuSoEOJocn-50" target="K7q8_SuDNJuuSoEOJocn-39" edge="1">
          <mxGeometry relative="1" as="geometry">
            <mxPoint x="220" y="190" as="sourcePoint" />
          </mxGeometry>
        </mxCell>
        <mxCell id="K7q8_SuDNJuuSoEOJocn-54" value="запрос абонементов" style="html=1;verticalAlign=bottom;endArrow=block;entryX=0;entryY=0;labelBackgroundColor=none;fontFamily=Verdana;fontSize=12;edgeStyle=elbowEdgeStyle;elbow=vertical;" parent="1" source="K7q8_SuDNJuuSoEOJocn-39" target="K7q8_SuDNJuuSoEOJocn-41" edge="1">
          <mxGeometry x="-0.006" relative="1" as="geometry">
            <mxPoint x="370" y="200" as="sourcePoint" />
            <mxPoint as="offset" />
          </mxGeometry>
        </mxCell>
        <mxCell id="K7q8_SuDNJuuSoEOJocn-55" value="&lt;span style=&quot;color: rgb(0, 0, 0); font-family: Verdana; font-size: 12px; font-style: normal; font-variant-ligatures: normal; font-variant-caps: normal; font-weight: 400; letter-spacing: normal; orphans: 2; text-align: center; text-indent: 0px; text-transform: none; widows: 2; word-spacing: 0px; -webkit-text-stroke-width: 0px; white-space: nowrap; text-decoration-thickness: initial; text-decoration-style: initial; text-decoration-color: initial; float: none; background-color: rgb(255, 255, 255); display: inline !important;&quot;&gt;коллекция абонементов&lt;/span&gt;" style="text;whiteSpace=wrap;html=1;" parent="1" vertex="1">
          <mxGeometry x="115" y="270" width="180" height="40" as="geometry" />
        </mxCell>
        <mxCell id="K7q8_SuDNJuuSoEOJocn-56" value="коллекция абонементов" style="html=1;verticalAlign=bottom;endArrow=open;dashed=1;endSize=8;labelBackgroundColor=none;fontFamily=Verdana;fontSize=12;edgeStyle=elbowEdgeStyle;elbow=horizontal;" parent="1" edge="1">
          <mxGeometry x="-0.7306" y="-5" relative="1" as="geometry">
            <mxPoint x="110" y="295" as="targetPoint" />
            <Array as="points">
              <mxPoint x="670" y="294.57" />
              <mxPoint x="700" y="294.57" />
            </Array>
            <mxPoint x="855" y="294.57" as="sourcePoint" />
            <mxPoint as="offset" />
          </mxGeometry>
        </mxCell>
      </root>
    </mxGraphModel>
  </diagram>
  <diagram id="d1fY7XHEcmKQ7xXOLbVs" name="действий">
    <mxGraphModel dx="1042" dy="634" grid="1" gridSize="10" guides="1" tooltips="1" connect="1" arrows="1" fold="1" page="1" pageScale="1" pageWidth="1169" pageHeight="827" math="0" shadow="0">
      <root>
        <mxCell id="0" />
        <mxCell id="1" parent="0" />
        <mxCell id="pIovbj1m7d7Pwx5V-1cp-99" value="" style="ellipse;html=1;shape=startState;fillColor=#000000;strokeColor=#ff0000;" vertex="1" parent="1">
          <mxGeometry x="516.25" y="10" width="37.5" height="37.5" as="geometry" />
        </mxCell>
        <mxCell id="pIovbj1m7d7Pwx5V-1cp-100" value="" style="edgeStyle=orthogonalEdgeStyle;html=1;verticalAlign=bottom;endArrow=open;endSize=8;strokeColor=#ff0000;rounded=0;entryX=0.5;entryY=0;entryDx=0;entryDy=0;" edge="1" parent="1" source="pIovbj1m7d7Pwx5V-1cp-99" target="pIovbj1m7d7Pwx5V-1cp-102">
          <mxGeometry relative="1" as="geometry">
            <mxPoint x="535" y="102.5" as="targetPoint" />
            <Array as="points" />
          </mxGeometry>
        </mxCell>
        <mxCell id="pIovbj1m7d7Pwx5V-1cp-101" value="" style="edgeStyle=orthogonalEdgeStyle;rounded=0;orthogonalLoop=1;jettySize=auto;html=1;" edge="1" parent="1" source="pIovbj1m7d7Pwx5V-1cp-102" target="pIovbj1m7d7Pwx5V-1cp-104">
          <mxGeometry relative="1" as="geometry" />
        </mxCell>
        <mxCell id="pIovbj1m7d7Pwx5V-1cp-102" value="Пользователь заходит в приложение&amp;nbsp;" style="rounded=0;whiteSpace=wrap;html=1;" vertex="1" parent="1">
          <mxGeometry x="460" y="90" width="150" height="50" as="geometry" />
        </mxCell>
        <mxCell id="pIovbj1m7d7Pwx5V-1cp-103" value="" style="edgeStyle=orthogonalEdgeStyle;rounded=0;orthogonalLoop=1;jettySize=auto;html=1;" edge="1" parent="1" source="pIovbj1m7d7Pwx5V-1cp-104" target="pIovbj1m7d7Pwx5V-1cp-106">
          <mxGeometry relative="1" as="geometry" />
        </mxCell>
        <mxCell id="pIovbj1m7d7Pwx5V-1cp-104" value="Пользователь выбирает авторизацию в систему" style="rounded=0;whiteSpace=wrap;html=1;" vertex="1" parent="1">
          <mxGeometry x="460" y="180" width="150" height="50" as="geometry" />
        </mxCell>
        <mxCell id="pIovbj1m7d7Pwx5V-1cp-105" value="" style="edgeStyle=orthogonalEdgeStyle;rounded=0;orthogonalLoop=1;jettySize=auto;html=1;entryX=0.5;entryY=0;entryDx=0;entryDy=0;" edge="1" parent="1" source="pIovbj1m7d7Pwx5V-1cp-106" target="pIovbj1m7d7Pwx5V-1cp-117">
          <mxGeometry relative="1" as="geometry">
            <mxPoint x="535" y="360" as="targetPoint" />
          </mxGeometry>
        </mxCell>
        <mxCell id="pIovbj1m7d7Pwx5V-1cp-106" value="Ввод необходимых данных" style="rounded=0;whiteSpace=wrap;html=1;" vertex="1" parent="1">
          <mxGeometry x="460" y="270" width="150" height="50" as="geometry" />
        </mxCell>
        <mxCell id="pIovbj1m7d7Pwx5V-1cp-107" value="Пользователь&amp;nbsp;&lt;span style=&quot;background-color: initial;&quot;&gt;ввел&lt;/span&gt;&lt;div&gt;&amp;nbsp;корректные&lt;/div&gt;&lt;div&gt;&amp;nbsp;данные?&lt;/div&gt;" style="rhombus;whiteSpace=wrap;html=1;fillColor=#ffffc0;strokeColor=#ff0000;" vertex="1" parent="1">
          <mxGeometry x="461.5" y="450" width="147" height="160" as="geometry" />
        </mxCell>
        <mxCell id="pIovbj1m7d7Pwx5V-1cp-108" value="no&lt;div&gt;&lt;br&gt;&lt;/div&gt;" style="edgeStyle=orthogonalEdgeStyle;rounded=0;orthogonalLoop=1;jettySize=auto;html=1;entryX=0.5;entryY=1;entryDx=0;entryDy=0;" edge="1" parent="1" target="pIovbj1m7d7Pwx5V-1cp-110">
          <mxGeometry x="-0.3395" y="3" relative="1" as="geometry">
            <mxPoint x="610" y="530" as="sourcePoint" />
            <mxPoint x="740" y="312.5" as="targetPoint" />
            <Array as="points">
              <mxPoint x="745" y="530" />
            </Array>
            <mxPoint as="offset" />
          </mxGeometry>
        </mxCell>
        <mxCell id="pIovbj1m7d7Pwx5V-1cp-109" value="&lt;div style=&quot;&quot;&gt;yes&lt;/div&gt;&lt;div style=&quot;&quot;&gt;&lt;br&gt;&lt;/div&gt;" style="edgeStyle=orthogonalEdgeStyle;rounded=0;orthogonalLoop=1;jettySize=auto;html=1;entryX=0.5;entryY=0;entryDx=0;entryDy=0;align=left;" edge="1" parent="1" target="pIovbj1m7d7Pwx5V-1cp-113">
          <mxGeometry relative="1" as="geometry">
            <mxPoint x="336" y="580" as="targetPoint" />
            <mxPoint x="460" y="530" as="sourcePoint" />
            <mxPoint as="offset" />
          </mxGeometry>
        </mxCell>
        <mxCell id="pIovbj1m7d7Pwx5V-1cp-110" value="Вывод сообщения об ошибке" style="rounded=0;whiteSpace=wrap;html=1;" vertex="1" parent="1">
          <mxGeometry x="670" y="342.5" width="150" height="50" as="geometry" />
        </mxCell>
        <mxCell id="pIovbj1m7d7Pwx5V-1cp-111" value="" style="endArrow=classic;html=1;rounded=0;entryX=1;entryY=0.5;entryDx=0;entryDy=0;exitX=0.5;exitY=0;exitDx=0;exitDy=0;" edge="1" parent="1" source="pIovbj1m7d7Pwx5V-1cp-110" target="pIovbj1m7d7Pwx5V-1cp-106">
          <mxGeometry width="50" height="50" relative="1" as="geometry">
            <mxPoint x="600" y="432.5" as="sourcePoint" />
            <mxPoint x="650" y="382.5" as="targetPoint" />
            <Array as="points">
              <mxPoint x="745" y="295" />
            </Array>
          </mxGeometry>
        </mxCell>
        <mxCell id="pIovbj1m7d7Pwx5V-1cp-112" value="" style="edgeStyle=orthogonalEdgeStyle;rounded=0;orthogonalLoop=1;jettySize=auto;html=1;" edge="1" parent="1" source="pIovbj1m7d7Pwx5V-1cp-113" target="pIovbj1m7d7Pwx5V-1cp-114">
          <mxGeometry relative="1" as="geometry" />
        </mxCell>
        <mxCell id="pIovbj1m7d7Pwx5V-1cp-113" value="Вывод сообщения об успешной авторизации" style="rounded=0;whiteSpace=wrap;html=1;" vertex="1" parent="1">
          <mxGeometry x="258.5" y="577.5" width="150" height="50" as="geometry" />
        </mxCell>
        <mxCell id="pIovbj1m7d7Pwx5V-1cp-114" value="Пользователь вошел в систему" style="rounded=0;whiteSpace=wrap;html=1;" vertex="1" parent="1">
          <mxGeometry x="258.5" y="670" width="150" height="50" as="geometry" />
        </mxCell>
        <mxCell id="pIovbj1m7d7Pwx5V-1cp-115" value="" style="ellipse;html=1;shape=endState;fillColor=#000000;strokeColor=#ff0000;" vertex="1" parent="1">
          <mxGeometry x="318.5" y="760" width="30" height="30" as="geometry" />
        </mxCell>
        <mxCell id="pIovbj1m7d7Pwx5V-1cp-116" value="" style="endArrow=classic;html=1;rounded=0;entryX=0.5;entryY=0;entryDx=0;entryDy=0;exitX=0.5;exitY=1;exitDx=0;exitDy=0;" edge="1" parent="1" source="pIovbj1m7d7Pwx5V-1cp-114" target="pIovbj1m7d7Pwx5V-1cp-115">
          <mxGeometry width="50" height="50" relative="1" as="geometry">
            <mxPoint x="468.5" y="760" as="sourcePoint" />
            <mxPoint x="518.5" y="710" as="targetPoint" />
          </mxGeometry>
        </mxCell>
        <mxCell id="pIovbj1m7d7Pwx5V-1cp-119" style="edgeStyle=orthogonalEdgeStyle;rounded=0;orthogonalLoop=1;jettySize=auto;html=1;entryX=0.5;entryY=0;entryDx=0;entryDy=0;" edge="1" parent="1" source="pIovbj1m7d7Pwx5V-1cp-117" target="pIovbj1m7d7Pwx5V-1cp-107">
          <mxGeometry relative="1" as="geometry" />
        </mxCell>
        <mxCell id="pIovbj1m7d7Pwx5V-1cp-117" value="Запрос введенных данных в БД" style="rounded=0;whiteSpace=wrap;html=1;" vertex="1" parent="1">
          <mxGeometry x="460" y="360" width="150" height="50" as="geometry" />
        </mxCell>
      </root>
    </mxGraphModel>
  </diagram>
</mxfile>
